<svg xmlns="http://www.w3.org/2000/svg" viewBox="0 0 120 120" width="120" height="120" role="img" aria-label="One folder branching to three notes">
  <rect width="120" height="120" rx="12" fill="#eef1fb"/>
  <path d="M34 26 h16 l5 7 h31 a3 3 0 0 1 3 3 v17 a3 3 0 0 1 -3 3 h-52 a3 3 0 0 1 -3 -3 v-24 a3 3 0 0 1 3 -3 z" fill="#4a5bd4"/>
  <path d="M60 56 v20 M28 76 h64 M28 76 v8 M60 76 v8 M92 76 v8" stroke="#4a5bd4" stroke-width="2" fill="none" stroke-linecap="round"/>
  <rect x="18" y="84" width="20" height="18" rx="4" fill="#ffffff" stroke="#4a5bd4" stroke-width="2"/>
  <rect x="50" y="84" width="20" height="18" rx="4" fill="#ffffff" stroke="#4a5bd4" stroke-width="2"/>
  <rect x="82" y="84" width="20" height="18" rx="4" fill="#ffffff" stroke="#4a5bd4" stroke-width="2"/>
</svg>
